<svg height="180" style="background: white" viewBox="0 0 440 180" width="440" xmlns="http://www.w3.org/2000/svg">
<g transform="translate(220,90)">
<g transform="translate(-100,-30) rotate(0)">
<path d="M-80,0 L-35,0" fill="none" stroke="black" stroke-width="2"/>
<rect fill="none" height="20" stroke="black" stroke-width="2" width="70" x="-35" y="-10"/>
<path d="M35,0 L80,0" fill="none" stroke="black" stroke-width="2"/>
<text text-anchor="middle" transform="" x="0" y="4">
R1
</text>
</g>
<g transform="translate(-100,30) rotate(0)">
<path d="M-80,0 L-35,0" fill="none" stroke="black" stroke-width="2"/>
<rect fill="none" height="20" stroke="black" stroke-width="2" width="70" x="-35" y="-10"/>
<path d="M35,0 L80,0" fill="none" stroke="black" stroke-width="2"/>
<text text-anchor="middle" transform="" x="0" y="4">
R2
</text>
</g>
<path d="M-180,-30 L-180,30" fill="none" stroke="black" stroke-width="2"/>
<path d="M-20,-30 L-20,30" fill="none" stroke="black" stroke-width="2"/>
<circle cx="-180" cy="0" fill="black" r="3"/>
<circle cx="-20" cy="0" fill="black" r="3"/>
<path d="M-200,0 L-180,0" fill="none" stroke="black" stroke-width="2"/>
<path d="M0,0 L-20,0" fill="none" stroke="black" stroke-width="2"/>
<g transform="translate(100,0) rotate(0)">
<path d="M-100,0 L-35,0" fill="none" stroke="black" stroke-width="2"/>
<rect fill="none" height="20" stroke="black" stroke-width="2" width="70" x="-35" y="-10"/>
<path d="M35,0 L100,0" fill="none" stroke="black" stroke-width="2"/>
<text text-anchor="middle" transform="" x="0" y="4">
R3
</text>
</g>
</g>
</svg>