<svg height="180" style="background: white" viewBox="0 0 712 180" width="712" xmlns="http://www.w3.org/2000/svg">
<g transform="translate(356,90)">
<g transform="translate(-93,-30) rotate(0)">
<path d="M-93,0 L-35,0" fill="none" stroke="black" stroke-width="2"/>
<rect fill="none" height="20" stroke="black" stroke-width="2" width="70" x="-35" y="-10"/>
<path d="M35,0 L93,0" fill="none" stroke="black" stroke-width="2"/>
<text text-anchor="middle" transform="" x="0" y="4">
Rs
</text>
</g>
<g transform="translate(93,-30) rotate(0)">
<path d="M-93,0 L-40,0 A10,10,0,0,1,-20,0 A10,10,0,0,1,0,0 A10,10,0,0,1,20,0 A10,10,0,0,1,40,0 L93,0" fill="none" stroke="black" stroke-width="2"/>
<text text-anchor="middle" transform="" x="0" y="-20">
Ls
</text>
</g>
<g transform="translate(279,-30) rotate(0)">
<path d="M-93,0 L-5,0" fill="none" stroke="black" stroke-width="2"/>
<path d="M-5,-15 L-5,15" fill="none" stroke="black" stroke-width="5"/>
<path d="M5,-15 L5,15" fill="none" stroke="black" stroke-width="5"/>
<path d="M5,0 L93,0" fill="none" stroke="black" stroke-width="2"/>
<text text-anchor="middle" transform="" x="0" y="30">
Cs
</text>
</g>
<g transform="translate(0,30) rotate(0)">
<path d="M-280,0 L-5,0" fill="none" stroke="black" stroke-width="2"/>
<path d="M-5,-15 L-5,15" fill="none" stroke="black" stroke-width="5"/>
<path d="M5,-15 L5,15" fill="none" stroke="black" stroke-width="5"/>
<path d="M5,0 L280,0" fill="none" stroke="black" stroke-width="2"/>
<text text-anchor="middle" transform="" x="0" y="30">
Cp
</text>
</g>
<path d="M-280,-30 L-280,30" fill="none" stroke="black" stroke-width="2"/>
<path d="M280,-30 L280,30" fill="none" stroke="black" stroke-width="2"/>
<circle cx="-280" cy="0" fill="black" r="3"/>
<circle cx="280" cy="0" fill="black" r="3"/>
<path d="M-300,0 L-280,0" fill="none" stroke="black" stroke-width="2"/>
<path d="M300,0 L280,0" fill="none" stroke="black" stroke-width="2"/>
</g>
</svg>